  <svg version="1.0" xmlns="http://www.w3.org/2000/svg" width="512.000000pt" height="512.000000pt"
    viewBox="0 0 512.000000 512.000000" preserveAspectRatio="xMidYMid meet">
    <metadata>
      Created by potrace 1.16, written by Peter Selinger 2001-2019
    </metadata>
    <g transform="translate(0.000000,512.000000) scale(0.100000,-0.100000)" fill="#9C4104" stroke="none">
      <path d="M2490 3668 c-85 -12 -216 -57 -286 -99 -123 -74 -245 -210 -300 -336
 -64 -143 -75 -330 -29 -468 103 -313 455 -499 753 -399 42 14 82 30 88 35 8 6
 13 -106 17 -408 4 -229 6 -418 4 -419 -3 -3 -287 -10 -287 -6 0 1 12 20 26 41
 30 45 54 120 54 166 0 97 -76 212 -174 263 -73 37 -178 37 -256 0 -30 -15 -62
 -33 -70 -40 -39 -33 -80 -99 -95 -152 -22 -76 -15 -143 24 -218 l30 -58 -117
 -1 c-144 -1 -167 -7 -167 -39 l0 -25 190 -6 c105 -3 220 -12 257 -19 57 -12
 76 -12 130 0 48 11 187 16 582 20 487 5 520 6 530 23 9 15 7 21 -9 34 -17 12
 -42 14 -152 9 l-133 -5 0 522 0 522 -303 0 c-290 0 -305 1 -367 23 -190 68
 -300 216 -300 408 0 160 94 305 243 375 210 98 434 15 534 -196 39 -84 58
 -108 100 -129 111 -56 234 38 220 168 -20 192 -261 381 -529 416 -86 11 -120
 11 -208 -2z" />
    </g>
  </svg>